<?xml version="1.0" standalone="no"?>
<!DOCTYPE svg PUBLIC "-//W3C//DTD SVG 20010904//EN"
 "http://www.w3.org/TR/2001/REC-SVG-20010904/DTD/svg10.dtd">
<svg version="1.0" xmlns="http://www.w3.org/2000/svg"
 width="612.000000pt" height="612.000000pt" viewBox="0 0 612.000000 612.000000"
 preserveAspectRatio="xMidYMid meet">
<metadata>
Created by potrace 1.14, written by Peter Selinger 2001-2017
</metadata>
<g transform="translate(0.000000,612.000000) scale(0.100000,-0.100000)"
fill="#000000" stroke="none">
<path d="M4244 4825 c-54 -28 -153 -110 -143 -119 3 -4 33 7 67 24 67 35 150
60 200 60 42 0 42 23 0 44 -43 22 -66 20 -124 -9z"/>
<path d="M4605 4841 c-3 -5 17 -32 43 -59 29 -30 64 -81 85 -126 34 -72 56
-96 52 -58 -9 95 -44 195 -81 229 -26 23 -87 32 -99 14z"/>
<path d="M1184 4605 c-40 -6 -78 -16 -85 -22 -8 -6 -32 -13 -54 -16 -91 -13
-123 -19 -175 -33 -30 -8 -62 -16 -71 -19 -79 -18 -315 -122 -344 -152 -12
-11 -11 -20 3 -60 14 -38 15 -47 3 -51 -24 -8 -174 -132 -224 -186 -27 -28
-62 -70 -79 -94 -28 -40 -29 -45 -14 -61 21 -24 21 -25 -18 -90 -49 -80 -101
-182 -108 -209 -5 -17 0 -27 20 -40 15 -9 29 -19 32 -23 6 -7 244 -185 473
-354 37 -27 82 -62 100 -78 18 -15 58 -46 89 -70 32 -23 60 -48 63 -55 2 -7
-4 -39 -14 -70 -30 -92 -30 -127 -1 -274 6 -31 10 -126 9 -210 -2 -127 2 -193
11 -193 1 0 3 -9 5 -20 8 -43 62 -150 111 -220 35 -51 94 -111 158 -162 17
-14 126 -64 126 -58 0 2 15 -2 33 -9 17 -7 42 -12 55 -11 12 1 22 0 22 -4 0
-3 18 -6 40 -7 21 0 37 3 34 7 -2 4 6 6 18 3 28 -7 37 -7 68 0 14 3 36 7 50
10 33 6 164 48 170 55 3 3 32 20 64 36 61 31 196 150 196 172 0 7 4 13 8 13
13 0 82 147 104 220 10 36 21 102 23 146 3 51 12 98 24 125 29 63 23 167 -12
237 -24 49 -27 82 -6 82 5 0 9 7 9 15 0 8 3 15 8 15 4 0 18 23 32 51 16 33 48
72 90 108 100 87 143 124 169 146 l23 20 -7 -50 c-4 -27 -9 -60 -11 -72 -10
-60 -10 -73 0 -73 7 0 7 -3 -1 -8 -12 -7 -16 -245 -5 -266 3 -6 7 -24 9 -40 5
-56 11 -101 18 -131 11 -58 47 -180 63 -215 9 -19 17 -40 18 -47 8 -49 156
-292 217 -357 19 -20 32 -36 29 -36 -16 0 194 -195 273 -254 50 -36 95 -70
100 -74 25 -19 168 -103 178 -105 7 -1 14 -5 17 -8 8 -9 123 -62 144 -66 11
-2 25 -8 31 -13 6 -5 20 -11 31 -13 10 -1 24 -6 30 -9 6 -4 21 -9 35 -12 13
-3 44 -12 68 -21 25 -9 57 -17 73 -18 15 -1 28 -6 28 -11 0 -5 2 -7 5 -4 4 3
25 1 48 -4 67 -15 90 -20 127 -23 19 -2 35 -4 35 -5 0 -12 379 -17 475 -6 36
4 83 9 105 12 68 7 139 21 220 44 22 6 50 13 62 15 12 3 33 9 47 15 13 5 27 6
30 3 3 -4 6 -1 6 5 0 7 8 12 17 12 19 0 250 97 273 114 8 7 29 18 45 26 17 8
35 20 41 25 7 6 31 22 55 37 60 37 79 50 102 68 20 16 25 20 102 85 142 120
288 294 359 428 19 34 43 79 55 100 12 21 19 42 16 48 -4 5 -1 9 6 9 7 0 9 3
6 7 -4 3 -3 11 2 17 20 27 85 271 76 286 -3 5 -2 11 3 14 4 3 9 24 11 48 3 57
5 71 14 86 5 7 3 12 -4 12 -8 0 -7 5 2 17 12 15 12 16 -1 8 -12 -7 -13 -6 -4
6 15 20 5 256 -13 329 -4 14 -7 27 -8 30 0 3 -4 22 -9 43 -9 49 -60 213 -77
252 -8 17 -18 33 -24 37 -5 4 -6 8 -2 8 7 0 -20 53 -79 157 -11 18 -22 33 -26
33 -5 0 -8 7 -8 15 0 7 -8 19 -17 24 -10 6 -14 11 -10 11 4 0 -4 11 -18 25
-14 14 -25 30 -25 34 0 10 -176 189 -247 252 -29 26 -53 45 -53 42 0 -2 -11 8
-25 22 -14 14 -30 25 -34 25 -7 0 -22 11 -68 50 -7 5 -16 10 -20 10 -5 0 -24
11 -43 23 -114 77 -382 191 -499 212 -14 3 -39 9 -56 13 -16 5 -40 8 -52 7
-12 -1 -20 2 -18 5 3 4 -21 10 -53 14 -31 4 -70 9 -87 11 -16 3 -88 7 -160 10
-71 2 -132 5 -135 6 -3 1 -9 1 -13 0 -4 -1 -49 -3 -100 -5 -117 -5 -227 -17
-227 -25 0 -3 -15 -7 -32 -8 -64 -3 -234 -44 -303 -73 -11 -4 -56 -23 -100
-40 -114 -46 -296 -145 -345 -188 -8 -7 -45 -34 -82 -61 -37 -27 -64 -51 -61
-55 4 -3 1 -6 -5 -6 -24 0 -203 -179 -268 -268 -7 -9 -14 -15 -16 -12 -35 42
-49 73 -39 83 14 14 15 67 1 67 -5 0 -10 7 -10 16 0 48 -217 278 -252 267 -15
-5 -17 36 -3 70 23 54 20 61 -37 86 -29 13 -68 29 -85 37 -18 8 -48 21 -65 29
-82 36 -372 136 -386 133 -4 -1 -25 3 -47 9 -22 7 -60 14 -85 18 -25 3 -61 9
-80 11 -70 10 -337 9 -406 -1z"/>
</g>
</svg>
